<?xml version="1.0" encoding="UTF-8"?>
<svg xmlns="http://www.w3.org/2000/svg" xmlns:xlink="http://www.w3.org/1999/xlink" width="233px" height="33px" viewBox="0 0 233 33" version="1.1">
<g id="surface1">
<path style=" stroke:none;fill-rule:nonzero;fill:rgb(80.392157%,11.764706%,14.509804%);fill-opacity:1;" d="M 72.710938 3.085938 C 66.894531 3.089844 60.609375 3.734375 56.503906 4.382812 L 56.503906 4.378906 C 49.625 5.449219 45.144531 6.550781 41.800781 7.761719 C 38.585938 8.929688 36.441406 10.183594 34.179688 11.582031 L 21.75 11.582031 C 21.390625 11.582031 21.0625 11.652344 20.898438 11.761719 L 19.273438 12.84375 C 19.121094 12.941406 19.136719 13.0625 19.308594 13.160156 C 19.480469 13.257812 19.800781 13.3125 20.132812 13.3125 L 31.90625 13.3125 L 9.796875 29.292969 C 9.628906 29.414062 9.703125 29.558594 9.976562 29.65625 L 10.421875 29.8125 C 10.636719 29.886719 10.949219 29.925781 11.257812 29.910156 L 20.277344 29.433594 C 20.578125 29.417969 20.84375 29.355469 20.984375 29.261719 L 45.375 13.3125 L 60.890625 13.3125 C 61.242188 13.3125 61.558594 13.25 61.730469 13.148438 L 63.5 12.066406 C 63.664062 11.964844 63.660156 11.84375 63.488281 11.746094 C 63.316406 11.644531 63 11.582031 62.664062 11.582031 L 47.949219 11.582031 L 52.445312 8.433594 L 52.457031 8.429688 C 53.484375 7.679688 54.621094 6.902344 56.503906 6.320312 C 57.441406 6.027344 58.566406 5.78125 59.996094 5.605469 C 61.425781 5.425781 63.171875 5.320312 65.332031 5.320312 C 66.882812 5.320312 68.429688 5.445312 69.972656 5.574219 C 71.515625 5.707031 73.046875 5.847656 74.625 5.847656 C 75.449219 5.847656 76.207031 5.777344 76.839844 5.664062 C 77.792969 5.496094 78.492188 5.246094 78.96875 4.996094 C 79.207031 4.867188 79.390625 4.742188 79.519531 4.621094 C 79.648438 4.496094 79.71875 4.378906 79.722656 4.253906 C 79.722656 4.128906 79.644531 4.007812 79.496094 3.898438 C 79.234375 3.710938 78.789062 3.570312 78.296875 3.46875 C 77.558594 3.316406 76.675781 3.226562 75.714844 3.167969 C 74.753906 3.109375 73.726562 3.085938 72.710938 3.085938 Z M 151.714844 9.898438 C 140.804688 9.898438 130.019531 11.0625 121.90625 12.757812 C 117.847656 13.605469 114.453125 14.589844 112.046875 15.644531 C 109.644531 16.695312 108.222656 17.820312 108.21875 18.953125 C 108.21875 19.4375 108.539062 19.929688 109.257812 20.390625 C 110.339844 21.078125 112.300781 21.683594 115.253906 22.105469 C 118.207031 22.527344 122.160156 22.777344 127.347656 22.777344 C 140.5625 22.777344 151.523438 21.277344 161.347656 19.367188 C 161.636719 19.3125 161.832031 19.207031 161.835938 19.09375 C 161.84375 18.976562 161.667969 18.867188 161.382812 18.808594 L 159.3125 18.367188 C 159.03125 18.308594 158.675781 18.300781 158.378906 18.351562 C 150.039062 19.765625 141.453125 20.730469 133.101562 20.730469 C 129.726562 20.730469 126.8125 20.554688 124.847656 20.246094 C 123.863281 20.09375 123.117188 19.910156 122.644531 19.714844 C 122.175781 19.515625 121.957031 19.308594 121.953125 19.058594 C 121.953125 18.476562 122.175781 17.9375 122.824219 17.375 C 130.722656 17.238281 141.425781 16.871094 150.339844 16.105469 C 154.910156 15.710938 159.003906 15.214844 162.039062 14.570312 C 163.558594 14.25 164.824219 13.890625 165.726562 13.472656 C 166.625 13.058594 167.152344 12.578125 167.148438 12.0625 C 167.148438 11.832031 166.992188 11.613281 166.695312 11.421875 C 166.171875 11.085938 165.289062 10.835938 164.242188 10.640625 C 162.664062 10.351562 160.648438 10.171875 158.464844 10.058594 C 156.28125 9.941406 153.9375 9.898438 151.714844 9.898438 Z M 207.859375 9.898438 C 196.949219 9.898438 186.175781 11.0625 178.058594 12.757812 C 174 13.605469 170.609375 14.589844 168.203125 15.644531 C 165.800781 16.695312 164.363281 17.820312 164.363281 18.953125 C 164.359375 19.4375 164.683594 19.929688 165.402344 20.390625 C 166.480469 21.078125 168.445312 21.683594 171.394531 22.105469 C 174.351562 22.527344 178.304688 22.777344 183.492188 22.777344 C 196.710938 22.777344 207.664062 21.277344 217.488281 19.367188 C 217.78125 19.3125 217.972656 19.207031 217.980469 19.09375 C 217.988281 18.976562 217.808594 18.867188 217.527344 18.808594 L 215.457031 18.367188 C 215.175781 18.308594 214.820312 18.300781 214.523438 18.351562 C 206.175781 19.765625 197.589844 20.730469 189.246094 20.730469 C 185.867188 20.730469 182.957031 20.554688 180.988281 20.246094 C 180.003906 20.09375 179.269531 19.910156 178.800781 19.714844 C 178.332031 19.515625 178.101562 19.308594 178.09375 19.058594 C 178.097656 18.480469 178.320312 17.9375 178.96875 17.375 C 186.867188 17.238281 197.566406 16.871094 206.484375 16.105469 C 211.054688 15.710938 215.148438 15.214844 218.183594 14.570312 C 219.699219 14.25 220.964844 13.890625 221.867188 13.472656 C 222.769531 13.058594 223.296875 12.578125 223.292969 12.0625 C 223.292969 11.832031 223.132812 11.613281 222.835938 11.421875 C 222.316406 11.085938 221.433594 10.835938 220.382812 10.640625 C 218.804688 10.351562 216.789062 10.171875 214.605469 10.058594 C 212.425781 9.941406 210.078125 9.898438 207.859375 9.898438 Z M 86.78125 10.207031 C 84.808594 10.207031 82.65625 10.375 80.453125 10.632812 C 77.148438 11.023438 73.722656 11.613281 70.761719 12.203125 C 67.804688 12.792969 65.320312 13.378906 63.894531 13.75 C 63.652344 13.8125 63.515625 13.914062 63.523438 14.015625 C 63.535156 14.121094 63.6875 14.21875 63.941406 14.277344 L 65.871094 14.71875 C 66.183594 14.789062 66.601562 14.792969 66.921875 14.722656 C 68.078125 14.46875 70.152344 14.039062 72.402344 13.679688 C 73.523438 13.5 74.691406 13.335938 75.796875 13.21875 C 76.902344 13.105469 77.949219 13.035156 78.800781 13.039062 C 79.574219 13.039062 80.035156 13.109375 80.308594 13.1875 C 80.582031 13.265625 80.660156 13.355469 80.65625 13.382812 C 80.65625 13.433594 80.621094 13.527344 80.523438 13.640625 C 80.246094 13.976562 79.535156 14.457031 79.015625 14.746094 L 79.003906 14.753906 L 67.363281 21.886719 C 67.289062 21.925781 67.191406 21.976562 67.101562 22.039062 C 67.011719 22.105469 66.921875 22.1875 66.921875 22.296875 C 66.921875 22.367188 66.980469 22.433594 67.054688 22.484375 C 67.199219 22.582031 67.378906 22.636719 67.554688 22.683594 C 67.867188 22.761719 68.203125 22.808594 68.585938 22.859375 C 69.15625 22.929688 69.824219 22.984375 70.523438 23.023438 C 71.21875 23.0625 71.945312 23.089844 72.605469 23.089844 C 73.945312 23.089844 75.210938 23.082031 76.230469 23.054688 C 76.742188 23.039062 77.183594 23.015625 77.582031 22.980469 C 77.78125 22.960938 77.972656 22.9375 78.167969 22.902344 C 78.355469 22.867188 78.582031 22.816406 78.753906 22.714844 L 78.765625 22.710938 L 81.421875 21.054688 C 83.839844 19.746094 87.644531 17.851562 92.054688 16.296875 C 94.269531 15.519531 96.625 14.828125 99.019531 14.335938 C 101.414062 13.84375 103.824219 13.554688 106.136719 13.554688 C 107.804688 13.550781 109.722656 13.65625 111.605469 13.65625 C 112.882812 13.65625 113.988281 13.5625 114.917969 13.40625 C 116.316406 13.175781 117.28125 12.808594 117.882812 12.445312 C 118.1875 12.261719 118.398438 12.078125 118.542969 11.902344 C 118.683594 11.730469 118.757812 11.5625 118.757812 11.414062 C 118.757812 11.226562 118.632812 11.039062 118.351562 10.875 C 118.144531 10.75 117.851562 10.644531 117.515625 10.558594 C 117.003906 10.429688 116.382812 10.34375 115.671875 10.289062 C 114.960938 10.234375 114.15625 10.207031 113.230469 10.207031 C 110.671875 10.207031 107.941406 10.515625 105.191406 10.976562 C 101.070312 11.667969 96.886719 12.71875 93.335938 13.726562 C 91.765625 14.171875 90.34375 14.597656 89.089844 14.988281 L 92.199219 13.019531 L 92.210938 13.015625 C 92.667969 12.722656 93.042969 12.453125 93.324219 12.203125 C 93.464844 12.078125 93.589844 11.957031 93.671875 11.847656 C 93.753906 11.734375 93.800781 11.625 93.804688 11.515625 C 93.808594 11.28125 93.589844 11.054688 93.179688 10.875 C 92.878906 10.738281 92.484375 10.628906 92.042969 10.542969 C 91.382812 10.417969 90.601562 10.335938 89.722656 10.285156 C 88.84375 10.230469 87.859375 10.207031 86.78125 10.207031 Z M 148.320312 11.378906 C 150.128906 11.378906 151.503906 11.488281 152.328125 11.644531 C 152.738281 11.71875 153.011719 11.804688 153.175781 11.890625 C 153.339844 11.976562 153.414062 12.058594 153.414062 12.167969 C 153.414062 12.460938 153.183594 12.726562 152.746094 12.988281 C 151.980469 13.445312 150.5 13.878906 148.472656 14.253906 C 145.445312 14.816406 141.242188 15.253906 136.703125 15.550781 C 132.753906 15.8125 128.550781 15.972656 124.621094 16.042969 C 125.210938 15.746094 126.007812 15.410156 126.976562 15.058594 C 129.3125 14.210938 132.625 13.28125 136.367188 12.574219 C 140.109375 11.863281 144.28125 11.378906 148.320312 11.378906 Z M 204.460938 11.378906 C 206.273438 11.378906 207.652344 11.488281 208.46875 11.644531 C 208.882812 11.71875 209.152344 11.804688 209.320312 11.890625 C 209.484375 11.976562 209.554688 12.058594 209.558594 12.167969 C 209.554688 12.460938 209.328125 12.726562 208.886719 12.988281 C 208.121094 13.445312 206.640625 13.878906 204.617188 14.253906 C 201.585938 14.816406 197.394531 15.253906 192.859375 15.550781 C 188.90625 15.8125 184.699219 15.972656 180.761719 16.042969 C 181.355469 15.746094 182.152344 15.410156 183.121094 15.058594 C 185.457031 14.210938 188.78125 13.28125 192.523438 12.574219 C 196.265625 11.863281 200.421875 11.378906 204.460938 11.378906 Z M 204.460938 11.378906 "/>
</g>
</svg>
