<?xml version="1.0" encoding="UTF-8"?>
<svg xmlns="http://www.w3.org/2000/svg" xmlns:xlink="http://www.w3.org/1999/xlink" width="233px" height="97px" viewBox="0 0 232 97" version="1.1">
<g id="surface1">
<path style=" stroke:none;fill-rule:nonzero;fill:rgb(80.392157%,11.764706%,14.509804%);fill-opacity:1;" d="M 72.398438 9.074219 C 66.605469 9.082031 60.347656 10.980469 56.257812 12.886719 L 56.257812 12.875 C 49.414062 16.011719 44.949219 19.253906 41.621094 22.820312 C 38.421875 26.246094 36.285156 29.9375 34.03125 34.042969 L 21.65625 34.042969 C 21.296875 34.042969 20.972656 34.25 20.808594 34.570312 L 19.191406 37.75 C 19.039062 38.046875 19.054688 38.398438 19.226562 38.679688 C 19.398438 38.964844 19.714844 39.136719 20.046875 39.136719 L 31.769531 39.136719 L 9.757812 86.097656 C 9.589844 86.457031 9.660156 86.886719 9.933594 87.171875 L 10.375 87.628906 C 10.589844 87.855469 10.902344 87.964844 11.210938 87.914062 L 20.191406 86.515625 C 20.488281 86.46875 20.753906 86.285156 20.894531 86.015625 L 45.179688 39.136719 L 60.632812 39.136719 C 60.976562 39.136719 61.296875 38.949219 61.464844 38.644531 L 63.226562 35.464844 C 63.390625 35.171875 63.386719 34.8125 63.214844 34.519531 C 63.046875 34.230469 62.730469 34.042969 62.394531 34.042969 L 47.742188 34.042969 L 52.222656 24.792969 L 52.234375 24.78125 C 53.253906 22.574219 54.386719 20.289062 56.257812 18.578125 C 57.195312 17.71875 58.3125 16.992188 59.738281 16.472656 C 61.160156 15.953125 62.898438 15.636719 65.050781 15.636719 C 66.59375 15.632812 68.136719 16 69.671875 16.390625 C 71.210938 16.773438 72.734375 17.1875 74.304688 17.191406 C 75.125 17.191406 75.878906 16.980469 76.507812 16.652344 C 77.460938 16.15625 78.15625 15.417969 78.628906 14.679688 C 78.867188 14.308594 79.050781 13.941406 79.179688 13.582031 C 79.304688 13.21875 79.378906 12.867188 79.378906 12.503906 C 79.382812 12.140625 79.300781 11.78125 79.152344 11.464844 C 78.894531 10.902344 78.449219 10.5 77.960938 10.199219 C 77.226562 9.742188 76.34375 9.484375 75.390625 9.3125 C 74.433594 9.144531 73.410156 9.074219 72.398438 9.074219 Z M 151.066406 29.09375 C 140.199219 29.097656 129.460938 32.511719 121.382812 37.496094 C 117.339844 39.992188 113.960938 42.890625 111.566406 45.984375 C 109.175781 49.074219 107.757812 52.382812 107.753906 55.714844 C 107.753906 57.132812 108.074219 58.585938 108.789062 59.933594 C 109.863281 61.960938 111.820312 63.734375 114.757812 64.976562 C 117.699219 66.222656 121.636719 66.949219 126.800781 66.949219 C 139.960938 66.949219 150.871094 62.539062 160.652344 56.933594 C 160.945312 56.765625 161.136719 56.457031 161.144531 56.121094 C 161.148438 55.785156 160.972656 55.460938 160.691406 55.285156 L 158.628906 53.992188 C 158.347656 53.816406 157.996094 53.796875 157.699219 53.945312 C 149.394531 58.097656 140.847656 60.941406 132.53125 60.9375 C 129.167969 60.941406 126.269531 60.421875 124.3125 59.515625 C 123.332031 59.0625 122.589844 58.527344 122.121094 57.949219 C 121.652344 57.363281 121.433594 56.757812 121.429688 56.023438 C 121.429688 54.316406 121.648438 52.722656 122.296875 51.074219 C 130.160156 50.667969 140.820312 49.589844 149.695312 47.335938 C 154.246094 46.175781 158.324219 44.71875 161.34375 42.828125 C 162.855469 41.882812 164.117188 40.824219 165.015625 39.601562 C 165.910156 38.382812 166.433594 36.96875 166.429688 35.453125 C 166.433594 34.78125 166.273438 34.140625 165.980469 33.578125 C 165.460938 32.585938 164.582031 31.855469 163.535156 31.28125 C 161.964844 30.425781 159.957031 29.898438 157.785156 29.5625 C 155.609375 29.226562 153.277344 29.09375 151.066406 29.09375 Z M 206.96875 29.09375 C 196.101562 29.097656 185.375 32.511719 177.296875 37.496094 C 173.253906 39.992188 169.875 42.890625 167.480469 45.984375 C 165.085938 49.074219 163.660156 52.382812 163.65625 55.714844 C 163.65625 57.132812 163.976562 58.585938 164.691406 59.933594 C 165.765625 61.960938 167.722656 63.734375 170.660156 64.976562 C 173.601562 66.222656 177.539062 66.949219 182.703125 66.949219 C 195.867188 66.949219 206.773438 62.535156 216.554688 56.933594 C 216.847656 56.765625 217.039062 56.457031 217.042969 56.121094 C 217.050781 55.785156 216.875 55.460938 216.59375 55.285156 L 214.53125 53.992188 C 214.25 53.816406 213.898438 53.796875 213.601562 53.945312 C 205.292969 58.097656 196.742188 60.941406 188.433594 60.9375 C 185.070312 60.941406 182.171875 60.421875 180.214844 59.515625 C 179.234375 59.0625 178.5 58.527344 178.035156 57.949219 C 177.566406 57.363281 177.335938 56.757812 177.332031 56.023438 C 177.332031 54.316406 177.554688 52.726562 178.199219 51.074219 C 186.0625 50.667969 196.71875 49.589844 205.597656 47.335938 C 210.148438 46.175781 214.226562 44.71875 217.246094 42.828125 C 218.757812 41.882812 220.019531 40.824219 220.914062 39.601562 C 221.8125 38.382812 222.335938 36.96875 222.332031 35.453125 C 222.335938 34.78125 222.175781 34.140625 221.878906 33.578125 C 221.359375 32.585938 220.480469 31.855469 219.4375 31.28125 C 217.867188 30.425781 215.859375 29.898438 213.683594 29.5625 C 211.515625 29.226562 209.175781 29.09375 206.96875 29.09375 Z M 86.410156 30.003906 C 84.445312 30.003906 82.300781 30.5 80.105469 31.257812 C 76.816406 32.398438 73.40625 34.140625 70.457031 35.871094 C 67.511719 37.605469 65.039062 39.328125 63.621094 40.414062 C 63.378906 40.601562 63.242188 40.898438 63.25 41.203125 C 63.261719 41.507812 63.414062 41.796875 63.667969 41.96875 L 65.585938 43.257812 C 65.902344 43.472656 66.316406 43.476562 66.632812 43.269531 C 67.785156 42.527344 69.851562 41.269531 72.089844 40.210938 C 73.210938 39.683594 74.371094 39.203125 75.472656 38.859375 C 76.574219 38.519531 77.613281 38.320312 78.464844 38.324219 C 79.234375 38.324219 79.691406 38.539062 79.964844 38.765625 C 80.238281 38.992188 80.316406 39.253906 80.308594 39.339844 C 80.3125 39.480469 80.273438 39.765625 80.179688 40.089844 C 79.902344 41.085938 79.195312 42.496094 78.675781 43.34375 L 78.664062 43.367188 L 67.074219 64.332031 C 67 64.453125 66.902344 64.597656 66.8125 64.785156 C 66.726562 64.976562 66.636719 65.222656 66.632812 65.539062 C 66.632812 65.746094 66.691406 65.9375 66.765625 66.089844 C 66.910156 66.375 67.089844 66.539062 67.265625 66.675781 C 67.574219 66.902344 67.910156 67.046875 68.289062 67.1875 C 68.859375 67.394531 69.527344 67.5625 70.21875 67.679688 C 70.914062 67.796875 71.636719 67.871094 72.292969 67.871094 C 73.628906 67.871094 74.886719 67.851562 75.902344 67.761719 C 76.410156 67.714844 76.855469 67.652344 77.25 67.546875 C 77.445312 67.492188 77.636719 67.421875 77.832031 67.320312 C 78.019531 67.214844 78.242188 67.070312 78.414062 66.769531 L 78.425781 66.757812 L 81.070312 61.894531 C 83.480469 58.042969 87.269531 52.476562 91.660156 47.910156 C 93.863281 45.617188 96.210938 43.582031 98.59375 42.136719 C 100.976562 40.6875 103.378906 39.839844 105.679688 39.839844 C 107.34375 39.835938 109.25 40.136719 111.125 40.140625 C 112.398438 40.140625 113.5 39.867188 114.425781 39.410156 C 115.816406 38.722656 116.777344 37.652344 117.378906 36.578125 C 117.679688 36.039062 117.890625 35.5 118.035156 34.988281 C 118.175781 34.476562 118.246094 33.992188 118.25 33.554688 C 118.25 32.996094 118.121094 32.445312 117.84375 31.964844 C 117.636719 31.601562 117.347656 31.285156 117.007812 31.03125 C 116.5 30.652344 115.882812 30.40625 115.175781 30.242188 C 114.464844 30.078125 113.667969 30.003906 112.746094 30.003906 C 110.199219 30.007812 107.480469 30.910156 104.742188 32.261719 C 100.636719 34.296875 96.472656 37.390625 92.9375 40.34375 C 91.371094 41.652344 89.957031 42.910156 88.707031 44.058594 L 91.804688 38.273438 L 91.816406 38.261719 C 92.269531 37.402344 92.644531 36.601562 92.925781 35.871094 C 93.0625 35.507812 93.1875 35.152344 93.269531 34.820312 C 93.351562 34.488281 93.398438 34.175781 93.402344 33.851562 C 93.40625 33.15625 93.1875 32.492188 92.78125 31.964844 C 92.480469 31.566406 92.085938 31.246094 91.648438 30.996094 C 90.988281 30.621094 90.214844 30.386719 89.339844 30.230469 C 88.464844 30.078125 87.480469 30.003906 86.410156 30.003906 Z M 147.683594 33.445312 C 149.484375 33.441406 150.855469 33.761719 151.671875 34.222656 C 152.082031 34.453125 152.351562 34.703125 152.519531 34.953125 C 152.683594 35.203125 152.753906 35.449219 152.757812 35.765625 C 152.753906 36.628906 152.527344 37.410156 152.089844 38.179688 C 151.328125 39.519531 149.851562 40.792969 147.835938 41.894531 C 144.820312 43.554688 140.632812 44.832031 136.117188 45.710938 C 132.183594 46.472656 128 46.949219 124.085938 47.15625 C 124.675781 46.285156 125.46875 45.292969 126.433594 44.261719 C 128.757812 41.773438 132.054688 39.042969 135.78125 36.960938 C 139.507812 34.871094 143.664062 33.441406 147.683594 33.445312 Z M 203.585938 33.445312 C 205.386719 33.441406 206.761719 33.761719 207.574219 34.222656 C 207.984375 34.449219 208.253906 34.703125 208.421875 34.953125 C 208.585938 35.203125 208.65625 35.449219 208.660156 35.765625 C 208.65625 36.628906 208.429688 37.410156 207.992188 38.179688 C 207.230469 39.519531 205.753906 40.792969 203.738281 41.894531 C 200.722656 43.554688 196.546875 44.832031 192.03125 45.710938 C 188.09375 46.472656 183.90625 46.949219 179.988281 47.15625 C 180.574219 46.285156 181.367188 45.292969 182.332031 44.261719 C 184.660156 41.773438 187.96875 39.042969 191.695312 36.960938 C 195.425781 34.871094 199.5625 33.441406 203.585938 33.445312 Z M 203.585938 33.445312 "/>
</g>
</svg>
